# xmcd
#
# Track frame offsets: 
#        150
#        14023
#        27269
#        43998
#        65456
#        77733
#        93734
#        109286
#        130272
#        147467
#        163832
#        177885
#        202376
#        220923
#        234816
#        253042
#        270714
#        289035
#
# Disc length: 4082 seconds
#
# Revision: 1
# Processed by: cddbd v1.5.2PL0 Copyright (c) Steve Scherf et al.
# Submitted via: ExactAudioCopy v1.0b3
#
DISCID=190ff012
DTITLE=King Bees - Stingin'
DYEAR=2008
DGENRE=Blues
TTITLE0=Don't Look At Me This Way
TTITLE1=The Hustle Is On
TTITLE2=High Class Woman
TTITLE3=Getting Tired
TTITLE4=Drifting
TTITLE5=How Long
TTITLE6=Jumpin' And Hollerin'
TTITLE7=Without You
TTITLE8=Blind As A Mole
TTITLE9=Hard Way
TTITLE10=Sweet Daddy
TTITLE11=Left Coast Boogie
TTITLE12=My Baby Done Changed
TTITLE13=Help Me Up
TTITLE14=As You Please
TTITLE15=Someday You're Gonna Pay
TTITLE16=That's Tuff
TTITLE17=When You're Not Around
EXTD=
EXTT0=
EXTT1=
EXTT2=
EXTT3=
EXTT4=
EXTT5=
EXTT6=
EXTT7=
EXTT8=
EXTT9=
EXTT10=
EXTT11=
EXTT12=
EXTT13=
EXTT14=
EXTT15=
EXTT16=
EXTT17=
PLAYORDER=
